PathFileType	4	(X/Y/Z)	Walk4.trc
DataRate	CameraRate	NumFrames	NumMarkers	Units	OrigDataRate	OrigDataStartFrame	OrigNumFrames
200.000000	200.000000	5	59	mm	200.000000	318	543
Frame#	Times		RFHD		CLAV		RBack		LASI		RACR1		RUA1		RElbow		RElbowM		RFA1		RWRR		RWRU		LACR1		LUA1		LFA1		LWRR		LWRU		RTH1		RTH3		RTH2		RTB3		RTB2		LTH1		LTH2		LTB2		RMT1		RCAR		LFHD		C7		RTB1		RTB4		RPSI		T10		LTH4		LBHD		LTH3		RLFC		STRN		RBHD		LLFC		LElbowM		LCAR		LTB4		RTH4		LTB1		LElbow		LPSI		LToe		LMMAL		RMT5		LCAL		RASI		LMT1		LMT5		LTB3		LLMAL		RToe		RCAL		RMMAL		RLMAL
			X1	Y1	Z1	X2	Y2	Z2	X3	Y3	Z3	X4	Y4	Z4	X5	Y5	Z5	X6	Y6	Z6	X7	Y7	Z7	X8	Y8	Z8	X9	Y9	Z9	X10	Y10	Z10	X11	Y11	Z11	X12	Y12	Z12	X13	Y13	Z13	X14	Y14	Z14	X15	Y15	Z15	X16	Y16	Z16	X17	Y17	Z17	X18	Y18	Z18	X19	Y19	Z19	X20	Y20	Z20	X21	Y21	Z21	X22	Y22	Z22	X23	Y23	Z23	X24	Y24	Z24	X25	Y25	Z25	X26	Y26	Z26	X27	Y27	Z27	X28	Y28	Z28	X29	Y29	Z29	X30	Y30	Z30	X31	Y31	Z31	X32	Y32	Z32	X33	Y33	Z33	X34	Y34	Z34	X35	Y35	Z35	X36	Y36	Z36	X37	Y37	Z37	X38	Y38	Z38	X39	Y39	Z39	X40	Y40	Z40	X41	Y41	Z41	X42	Y42	Z42	X43	Y43	Z43	X44	Y44	Z44	X45	Y45	Z45	X46	Y46	Z46	X47	Y47	Z47	X48	Y48	Z48	X49	Y49	Z49	X50	Y50	Z50	X51	Y51	Z51	X52	Y52	Z52	X53	Y53	Z53	X54	Y54	Z54	X55	Y55	Z55	X56	Y56	Z56	X57	Y57	Z57	X58	Y58	Z58	X59	Y59	Z59

318	1.59	-245.19	1418.7	3.318	-264.01	1180.4	-63.395	-452.07	1147.3	62.049	-287.76	815.25	-212.22	-334.65	1216	116.84	-325.66	1075.6	200.27	-338.16	950.56	236.94	-391.5	916.65	167.08	-274.82	834.94	239.92	-258.47	735.07	203.44	-287.5	736.76	270.76	-348.95	1205.3	-247.93	-349.23	1042.9	-318.02	-344.19	836.5	-372.7	-305.33	727.29	-360.05	-357.01	726.16	-397.04	-332.8	629.09	163.21	-327.28	459.57	129.13	-276.36	551.21	125.68	-531.91	173.34	30.028	-495.12	252.63	93.134	-332.99	651.59	-261.22	-270.14	586.33	-214.1	-276.37	213.48	-156.58	-578.15	59.087	-16.731	-243.53	679.06	255.26	-233.5	1430.6	-91.887	-406.26	1265	-61.711	-393.7	270.06	66.283	-466.48	223.4	47.445	-528.85	836.6	19.098	-491.87	1066.8	-41.364	-320.46	568.53	-240.48	-360.3	1354.2	-125.87	-309.06	486.54	-210.2	-368.93	378.74	112.94	-214.43	1074.6	-66.575	-374.78	1346.8	6.0793	-272.4	400.05	-171.5	-416.8	904.61	-263.39	-319.89	674.07	-402.03	-258.65	215.26	-97.006	-332.22	544.07	147.66	-248.58	302.44	-103.62	-396.2	929.31	-332.56	-542.97	842.36	-87.484	-137.25	29.709	-82.567	-292.07	73.028	-44.992	-613.85	69.075	65.021	-355	41.904	-79.399	-271.5	826.03	106.15	-188.63	32.868	-59.521	-230.21	19.169	-145.82	-261.65	132.2	-91.674	-311.61	56.51	-123.46	-551.34	28.418	24.148	-659.12	203.01	-1.5548	-588.82	166.68	-26.048	-618.32	169.52	51.417
319	1.595	-239.68	1419.5	3.044	-258.57	1181.2	-63.528	-446.8	1148.1	61.676	-282.55	816.03	-212.45	-329.52	1216.8	116.66	-320.85	1076.4	200.14	-333.63	951.32	236.63	-386.85	917.58	166.59	-270.59	835.55	239.68	-254.59	735.6	203.17	-283.6	737.39	270.5	-343.24	1206.1	-248.11	-342.67	1043.7	-318.26	-336.16	837.49	-372.78	-296.21	728.78	-359.64	-347.57	727.01	-397	-325.94	629.94	162.93	-317.53	460.41	129.14	-268.12	552.92	125.45	-521.36	174.81	30.383	-484.28	254.09	93.381	-329.31	651.81	-261.64	-266.71	585.97	-214.99	-275.46	213.24	-156.9	-567.04	60.49	-14.674	-240.11	679.24	254.86	-227.91	1431.3	-92.166	-400.81	1265.8	-62.001	-382.88	271.19	66.375	-455.85	224.72	47.67	-523.45	837.24	18.956	-486.49	1067.6	-41.687	-317.42	568.61	-240.95	-354.77	1354.9	-126.15	-306.56	486.59	-210.58	-358.29	379.61	113.05	-209.08	1075.4	-67.047	-369.31	1347.7	5.7933	-270.26	399.79	-171.89	-410.32	905.29	-264.09	-309.85	675.33	-401.6	-257.53	214.98	-97.398	-323.96	544.97	147.53	-246.81	302.08	-104.11	-389.37	929.99	-333.2	-537.62	843.52	-87.669	-137.19	29.746	-82.596	-291.96	73.08	-45.055	-603.39	71.474	66.559	-355.03	41.938	-79.458	-266	826.55	105.77	-188.69	32.937	-59.536	-230.24	19.185	-145.87	-261.15	131.93	-91.959	-311.63	56.548	-123.5	-540.73	29.197	26.753	-648.73	204.45	-1.5772	-578.29	167.99	-25.669	-607.88	171.45	51.781
320	1.6	-234.18	1420.3	2.7841	-253.13	1182	-63.628	-441.54	1148.9	61.313	-277.41	816.76	-212.66	-324.41	1217.6	116.51	-316.07	1077.2	200.05	-329.11	952.04	236.37	-382.21	918.48	166.17	-266.36	836.12	239.49	-250.68	736.11	202.92	-279.68	738	270.26	-337.53	1206.9	-248.27	-336.11	1044.5	-318.47	-328.12	838.48	-372.85	-287.07	730.27	-359.24	-338.12	727.88	-396.95	-319.15	630.84	162.64	-307.95	461.37	129.1	-260.02	554.68	125.19	-510.57	176.09	30.682	-473.31	255.39	93.559	-325.72	652.01	-262.04	-263.34	585.63	-215.87	-274.55	213	-157.19	-555.36	61.702	-12.659	-236.62	679.44	254.48	-222.34	1432	-92.431	-395.34	1266.5	-62.26	-371.99	272.39	66.332	-445.06	225.97	47.806	-518.1	837.92	18.777	-481.12	1068.4	-42.005	-314.42	568.68	-241.4	-349.25	1355.7	-126.42	-304.09	486.62	-210.93	-347.73	380.62	113.08	-203.74	1076.2	-67.433	-363.84	1348.5	5.5259	-268.14	399.52	-172.26	-403.85	905.91	-264.8	-299.78	676.63	-401.17	-256.43	214.7	-97.771	-315.82	545.96	147.38	-245.06	301.73	-104.56	-382.54	930.64	-333.84	-532.28	844.68	-87.875	-137.11	29.769	-82.643	-291.85	73.134	-45.121	-592.3	73.568	68.107	-355.04	41.979	-79.514	-260.59	827.09	105.51	-188.73	33.005	-59.555	-230.27	19.192	-145.91	-260.64	131.67	-92.225	-311.65	56.591	-123.53	-529.33	30.028	29.263	-638.21	205.37	-1.5955	-567.51	168.97	-25.303	-597.17	173.02	52.143
321	1.605	-228.68	1421	2.5388	-247.69	1182.7	-63.698	-436.29	1149.6	60.961	-272.35	817.43	-212.84	-319.3	1218.3	116.4	-311.32	1078	199.99	-324.58	952.72	236.15	-377.58	919.33	165.82	-262.11	836.67	239.33	-246.73	736.61	202.69	-275.74	738.57	270.04	-331.83	1207.6	-248.43	-329.56	1045.3	-318.65	-320.08	839.46	-372.92	-277.93	731.78	-358.83	-328.65	728.75	-396.89	-312.44	631.78	162.37	-298.54	462.42	129.01	-252.05	556.48	124.91	-499.55	177.18	30.939	-462.22	256.55	93.677	-322.18	652.19	-262.4	-260.01	585.29	-216.7	-273.63	212.78	-157.46	-543.13	62.713	-10.721	-233.06	679.67	254.14	-216.78	1432.6	-92.683	-389.86	1267.2	-62.489	-361.04	273.64	66.174	-434.11	227.15	47.868	-512.82	838.66	18.561	-475.76	1069.2	-42.318	-311.46	568.74	-241.8	-343.73	1356.4	-126.67	-301.61	486.66	-211.26	-337.24	381.76	113.03	-198.4	1076.9	-67.731	-358.37	1349.3	5.2765	-266.03	399.26	-172.61	-397.38	906.48	-265.51	-289.69	677.97	-400.75	-255.33	214.42	-98.116	-307.79	547.03	147.22	-243.32	301.38	-104.98	-375.71	931.26	-334.49	-526.96	845.85	-88.103	-137.03	29.777	-82.704	-291.73	73.19	-45.188	-580.6	75.325	69.629	-355.05	42.029	-79.567	-255.24	827.66	105.38	-188.77	33.068	-59.576	-230.29	19.193	-145.95	-260.13	131.42	-92.464	-311.66	56.641	-123.56	-517.18	30.889	31.637	-627.55	205.75	-1.5983	-556.49	169.62	-24.952	-586.17	174.19	52.504
322	1.61	-223.19	1421.7	2.3085	-242.26	1183.4	-63.743	-431.04	1150.4	60.622	-267.37	818.05	-213	-314.19	1219	116.32	-306.6	1078.7	199.96	-320.04	953.38	235.98	-372.95	920.14	165.54	-257.85	837.19	239.22	-242.75	737.09	202.5	-271.78	739.12	269.84	-326.14	1208.3	-248.57	-323.03	1046	-318.82	-312.03	840.43	-372.96	-268.78	733.3	-358.42	-319.18	729.63	-396.81	-305.82	632.76	162.1	-289.29	463.56	128.89	-244.22	558.31	124.63	-488.3	178.06	31.165	-451.03	257.57	93.742	-318.67	652.36	-262.73	-256.69	584.96	-217.49	-272.7	212.56	-157.71	-530.39	63.522	-8.8955	-229.41	679.92	253.84	-211.23	1433.3	-92.92	-384.37	1268	-62.69	-350.04	274.94	65.92	-423.01	228.23	47.87	-507.58	839.44	18.31	-470.41	1069.9	-42.628	-308.49	568.8	-242.16	-338.21	1357	-126.9	-299.12	486.69	-211.55	-326.82	383	112.91	-193.06	1077.6	-67.94	-352.9	1350.1	5.0448	-263.91	399	-172.94	-390.9	907	-266.23	-279.59	679.35	-400.34	-254.23	214.14	-98.428	-299.88	548.15	147.04	-241.59	301.03	-105.36	-368.87	931.85	-335.13	-521.67	847	-88.353	-136.93	29.769	-82.777	-291.59	73.246	-45.253	-568.33	76.719	71.089	-355.05	42.088	-79.613	-249.97	828.26	105.37	-188.79	33.127	-59.598	-230.31	19.19	-145.99	-259.61	131.18	-92.672	-311.66	56.696	-123.58	-504.33	31.757	33.84	-616.75	205.6	-1.5759	-545.24	169.94	-24.615	-574.91	174.97	52.864
